<svg width="34" height="32" viewBox="0 0 34 32" fill="none" xmlns="http://www.w3.org/2000/svg">
<path d="M18.8798 22.5181C18.8798 22.5181 22.122 21.049 22.347 19.4831C22.4075 19.0606 22.3225 18.6349 22.1256 18.2024C21.5514 16.9423 20.7202 16.6311 15.7088 17.8287C11.6974 18.7814 8.88054 18.1496 7.74452 15.6569C6.35212 12.6011 8.09997 8.36336 13.2435 6.11083C13.6254 5.9435 13.99 5.79764 14.3412 5.66749L14.3409 5.66653C14.3644 5.6582 14.39 5.64923 14.4138 5.64057C15.7536 5.14948 16.8706 4.91836 17.7921 4.87733C18.3536 4.81931 18.954 4.79014 19.5903 4.80489C20.1646 4.81835 20.7035 4.86611 21.2031 4.93535C21.7421 5.01004 22.2028 4.55645 22.1318 4.02786C22.0092 3.11845 21.8872 2.20904 21.7646 1.29963C21.7205 0.972985 21.4795 0.705643 21.1544 0.622619C20.3752 0.423555 19.5966 0.225125 18.8173 0.0260606C18.4749 -0.0611301 18.1133 0.0751098 17.9193 0.365211C17.2735 1.32976 16.6283 2.29399 15.9825 3.25853C14.5234 3.50985 13.7536 3.64288 12.2945 3.89452C11.2726 3.14602 10.251 2.39753 9.22913 1.64903C8.95673 1.44965 8.58722 1.43426 8.29847 1.61057L6.18993 2.89791C5.88679 3.08287 5.73964 3.43804 5.82466 3.77815C6.15723 5.10044 6.48946 6.42305 6.82138 7.74533C6.88089 7.98286 6.82792 8.23353 6.67717 8.42843C6.38678 8.80315 6.09575 9.1782 5.80537 9.55293C5.66868 9.72955 5.46364 9.84336 5.23866 9.86772C3.8842 10.0142 2.52908 10.1607 1.17462 10.3075C0.813277 10.3466 0.520932 10.6127 0.453569 10.9627C0.306743 11.7308 0.160244 12.4991 0.0140714 13.2672C-0.0431548 13.5679 0.0768569 13.8743 0.325055 14.0593C1.41562 14.8741 2.50619 15.6887 3.59611 16.5035C3.77956 16.6407 3.89597 16.8468 3.91788 17.0722C3.96759 17.5953 4.01729 18.1188 4.067 18.6419C4.08531 18.8362 4.03135 19.0304 3.91559 19.1891C3.51959 19.7299 3.30965 20.035 2.57683 21.0169C2.48069 21.1454 2.46793 21.3166 2.54314 21.4574L2.55263 21.4753C2.98395 22.2841 3.41593 23.0928 3.84757 23.9022C4.0029 24.1926 4.30604 24.3773 4.64057 24.385C6.71608 24.4337 9.15588 24.2273 11.9008 24.0365C13.6908 23.9144 16.1326 23.7112 18.8798 22.5181Z" fill="#F2B705"/>
<path d="M23.2298 7.54253C19.0618 7.93169 17.2659 8.08428 15.846 8.7677C13.6063 9.84604 11.4608 12.0922 11.9304 13.4058C12.0164 13.6468 12.1665 13.7953 12.2787 13.8975C12.9863 14.5431 14.5275 14.5418 18.1782 13.6606C22.4891 12.6089 25.2321 13.4978 26.356 15.9641C28.0051 19.5829 26.1529 23.2555 20.8495 25.5782C19.979 25.9593 19.1667 26.2465 18.4153 26.4469C16.0265 27.1899 14.1799 27.4175 12.7705 27.4881C12.6649 27.4932 12.5933 27.5958 12.6286 27.6935C13.0242 28.7927 13.4196 29.8919 13.8153 30.9911C13.9104 31.2555 14.1384 31.453 14.4179 31.5123C15.1495 31.6687 15.8803 31.8248 16.6118 31.9813C16.9686 32.0572 17.3342 31.895 17.5108 31.5809C18.0644 30.5961 18.6177 29.6117 19.1713 28.6267C20.4676 28.3276 21.1232 28.1763 22.4198 27.8769C23.2942 28.4693 24.1683 29.0613 25.0427 29.6531C25.3455 29.8579 25.7504 29.8419 26.0352 29.6133C26.7268 29.0578 27.4181 28.5023 28.1097 27.9464C28.3743 27.7339 28.4773 27.3842 28.37 27.0662C28.0885 26.2337 27.8076 25.4009 27.526 24.5684C28.2798 23.3167 28.6464 22.7073 29.4001 21.4555L32.5289 20.8827C32.8706 20.8202 33.1358 20.5545 33.1921 20.2182C33.319 19.4617 33.4452 18.7055 33.5721 17.949C33.6299 17.6031 33.4537 17.2595 33.1358 17.0989C31.9635 16.5062 30.7912 15.9138 29.6189 15.3211C29.4148 15.2182 29.2641 15.0364 29.2019 14.8198C29.0731 14.37 28.9449 13.92 28.8164 13.4696C28.753 13.2474 28.7896 13.0089 28.9161 12.8147C29.5885 11.786 30.2608 10.7574 30.9331 9.72839C31.1175 9.4463 31.1054 9.08248 30.9027 8.81257C30.4442 8.20127 29.9854 7.58997 29.527 6.97868C29.3334 6.72095 29.0031 6.59882 28.6843 6.66806C27.4858 6.92675 26.2877 7.18608 25.0892 7.44477L23.2298 7.54253Z" fill="#616BE8"/>
</svg>
