<svg width="65" height="60" viewBox="0 0 65 60" fill="none" xmlns="http://www.w3.org/2000/svg">
<g clip-path="url(#clip0_4_14)">
<rect width="65" height="60" fill="white"/>
<g filter="url(#filter0_d_4_14)">
<rect width="65" height="60" rx="8" fill="#F2B705"/>
</g>
<path fill-rule="evenodd" clip-rule="evenodd" d="M29.417 18.6376C29.6379 19.1438 29.4067 19.7332 28.9005 19.9541C27.1788 20.7054 25.6673 21.8671 24.4983 23.3375C23.3293 24.8079 22.5382 26.5422 22.1944 28.389C21.8505 30.2357 21.9642 32.1385 22.5256 33.9312C23.087 35.7238 24.079 37.3516 25.4148 38.6723C26.7507 39.993 28.3897 40.9663 30.1886 41.5072C31.9876 42.0481 33.8916 42.1401 35.7343 41.7751C37.577 41.4102 39.3022 40.5994 40.7591 39.4136C42.2161 38.2279 43.3604 36.7033 44.092 34.9731C44.3071 34.4645 44.8938 34.2265 45.4025 34.4416C45.9111 34.6567 46.1491 35.2434 45.934 35.7521C45.0752 37.7831 43.7319 39.5729 42.0216 40.9648C40.3113 42.3568 38.286 43.3086 36.1228 43.737C33.9597 44.1654 31.7245 44.0575 29.6127 43.4225C27.501 42.7875 25.5769 41.6449 24.0087 40.0945C22.4406 38.5442 21.276 36.6333 20.617 34.5289C19.958 32.4245 19.8245 30.1907 20.2282 28.0228C20.6319 25.8549 21.5605 23.8189 22.9328 22.0928C24.3051 20.3667 26.0794 19.003 28.1005 18.1211C28.6067 17.9002 29.1961 18.1315 29.417 18.6376Z" fill="white"/>
<path fill-rule="evenodd" clip-rule="evenodd" d="M32.7939 17.2929C32.9814 17.1054 33.2358 17 33.501 17C35.2738 17 37.0293 17.3492 38.6672 18.0276C40.3051 18.7061 41.7933 19.7005 43.0469 20.9541C44.3005 22.2076 45.2949 23.6959 45.9734 25.3338C46.6518 26.9717 47.001 28.7272 47.001 30.5C47.001 31.0523 46.5533 31.5 46.001 31.5H33.501C32.9487 31.5 32.501 31.0523 32.501 30.5V18C32.501 17.7348 32.6063 17.4804 32.7939 17.2929ZM34.501 19.0436V29.5H44.9574C44.8555 28.3325 44.5756 27.1855 44.1256 26.0991C43.5477 24.7039 42.7006 23.4361 41.6327 22.3683C40.5648 21.3004 39.2971 20.4533 37.9018 19.8754C36.8155 19.4254 35.6685 19.1455 34.501 19.0436Z" fill="white"/>
</g>
<defs>
<filter id="filter0_d_4_14" x="-9" y="-5" width="83" height="78" filterUnits="userSpaceOnUse" color-interpolation-filters="sRGB">
<feFlood flood-opacity="0" result="BackgroundImageFix"/>
<feColorMatrix in="SourceAlpha" type="matrix" values="0 0 0 0 0 0 0 0 0 0 0 0 0 0 0 0 0 0 127 0" result="hardAlpha"/>
<feOffset dy="4"/>
<feGaussianBlur stdDeviation="4.5"/>
<feComposite in2="hardAlpha" operator="out"/>
<feColorMatrix type="matrix" values="0 0 0 0 0 0 0 0 0 0 0 0 0 0 0 0 0 0 0.05 0"/>
<feBlend mode="normal" in2="BackgroundImageFix" result="effect1_dropShadow_4_14"/>
<feBlend mode="normal" in="SourceGraphic" in2="effect1_dropShadow_4_14" result="shape"/>
</filter>
<clipPath id="clip0_4_14">
<rect width="65" height="60" fill="white"/>
</clipPath>
</defs>
</svg>
