<svg width="65" height="60" viewBox="0 0 65 60" fill="none" xmlns="http://www.w3.org/2000/svg">
<g clip-path="url(#clip0_4_10)">
<rect width="65" height="60" fill="white"/>
<g filter="url(#filter0_d_4_10)">
<rect width="65" height="60" rx="8" fill="#F2B705"/>
</g>
<path fill-rule="evenodd" clip-rule="evenodd" d="M29.25 17.75C29.6804 17.75 30.0626 18.0254 30.1987 18.4338L36.75 38.0877L39.5513 29.6838C39.6874 29.2754 40.0696 29 40.5 29H45.5C46.0523 29 46.5 29.4477 46.5 30C46.5 30.5523 46.0523 31 45.5 31H41.2208L37.6987 41.5662C37.5626 41.9746 37.1804 42.25 36.75 42.25C36.3196 42.25 35.9374 41.9746 35.8013 41.5662L29.25 21.9123L26.4487 30.3162C26.3126 30.7246 25.9304 31 25.5 31H20.5C19.9477 31 19.5 30.5523 19.5 30C19.5 29.4477 19.9477 29 20.5 29H24.7792L28.3013 18.4338C28.4374 18.0254 28.8196 17.75 29.25 17.75Z" fill="white"/>
</g>
<defs>
<filter id="filter0_d_4_10" x="-9" y="-5" width="83" height="78" filterUnits="userSpaceOnUse" color-interpolation-filters="sRGB">
<feFlood flood-opacity="0" result="BackgroundImageFix"/>
<feColorMatrix in="SourceAlpha" type="matrix" values="0 0 0 0 0 0 0 0 0 0 0 0 0 0 0 0 0 0 127 0" result="hardAlpha"/>
<feOffset dy="4"/>
<feGaussianBlur stdDeviation="4.5"/>
<feComposite in2="hardAlpha" operator="out"/>
<feColorMatrix type="matrix" values="0 0 0 0 0 0 0 0 0 0 0 0 0 0 0 0 0 0 0.05 0"/>
<feBlend mode="normal" in2="BackgroundImageFix" result="effect1_dropShadow_4_10"/>
<feBlend mode="normal" in="SourceGraphic" in2="effect1_dropShadow_4_10" result="shape"/>
</filter>
<clipPath id="clip0_4_10">
<rect width="65" height="60" fill="white"/>
</clipPath>
</defs>
</svg>
