<svg width="19" height="19" viewBox="0 0 19 19" fill="none" xmlns="http://www.w3.org/2000/svg">
<path d="M0.660949 0.661327C1.63726 -0.314984 3.22017 -0.314984 4.19648 0.661327L18.3386 14.8035C19.3149 15.7798 19.3149 17.3627 18.3386 18.339C17.3623 19.3153 15.7794 19.3153 14.8031 18.339L0.660949 4.19686C-0.315361 3.22055 -0.315361 1.63764 0.660949 0.661327Z" fill="#616BE8"/>
<path d="M0.661327 18.3391C-0.314984 17.3627 -0.314984 15.7798 0.661327 14.8035L14.8035 0.661387C15.7798 -0.314924 17.3627 -0.314919 18.339 0.661392C19.3153 1.6377 19.3153 3.22061 18.339 4.19692L4.19686 18.3391C3.22055 19.3154 1.63764 19.3154 0.661327 18.3391Z" fill="#616BE8"/>
</svg>
