<svg width="1440" height="562" viewBox="0 0 1440 562" fill="none" xmlns="http://www.w3.org/2000/svg">
<path d="M0.00019455 0H1440V562H0.00019455V0Z" fill="white"/>
<path d="M623.36 238.019C634.705 216.44 626.465 189.783 604.954 178.475C583.443 167.166 556.813 175.491 545.468 197.07C534.124 218.649 542.364 245.306 563.875 256.614C585.385 267.923 612.016 259.598 623.36 238.019ZM554.882 202.019C563.483 185.658 583.68 179.344 599.99 187.918C616.299 196.492 622.548 216.709 613.947 233.07C605.345 249.432 585.148 255.745 568.839 247.171C552.53 238.597 546.28 218.38 554.882 202.019Z" fill="#F9F9FF"/>
<path d="M527.716 290.672C529.964 286.396 528.377 281.136 524.171 278.925C519.965 276.714 514.733 278.388 512.485 282.665C510.236 286.941 511.823 292.201 516.029 294.412C520.235 296.623 525.468 294.949 527.716 290.672Z" fill="#F9F9FF"/>
<path d="M133.948 158.287C111.331 167.39 100.355 193.042 109.429 215.586C118.504 238.131 144.19 249.025 166.806 239.922C189.422 230.819 200.398 205.168 191.324 182.623C182.25 160.079 156.564 149.184 133.948 158.287ZM162.835 230.056C145.688 236.958 126.207 228.696 119.327 211.602C112.447 194.509 120.771 175.055 137.919 168.153C155.066 161.251 174.547 169.514 181.427 186.607C188.307 203.7 179.983 223.154 162.835 230.056Z" fill="#F9F9FF"/>
<path d="M240.931 180.073C236.449 181.877 234.254 186.913 236.028 191.321C237.803 195.729 242.875 197.84 247.357 196.036C251.839 194.232 254.034 189.196 252.26 184.788C250.486 180.38 245.414 178.269 240.931 180.073Z" fill="#F9F9FF"/>
<path d="M834.088 421.169C858.035 425.741 881.139 410.1 885.697 386.229C890.256 362.358 874.541 339.303 850.594 334.73C826.647 330.158 803.543 345.799 798.984 369.67C794.426 393.541 810.141 416.596 834.088 421.169ZM848.599 345.177C866.755 348.644 878.674 366.129 875.218 384.228C871.762 402.326 854.239 414.189 836.083 410.722C817.926 407.255 806.008 389.77 809.464 371.671C812.92 353.573 830.443 341.71 848.599 345.177Z" fill="#F9F9FF"/>
<path d="M755.877 344.99C760.623 345.896 765.193 342.847 766.084 338.179C766.975 333.512 763.85 328.993 759.104 328.087C754.359 327.181 749.789 330.23 748.897 334.898C748.006 339.565 751.131 344.084 755.877 344.99Z" fill="#F9F9FF"/>
<path d="M1076.4 393.164C1052.05 391.969 1031.35 410.674 1030.16 434.947C1028.97 459.22 1047.74 479.863 1072.09 481.059C1096.44 482.254 1117.14 463.549 1118.33 439.276C1119.52 415.003 1100.75 394.36 1076.4 393.164ZM1072.61 470.436C1054.15 469.53 1039.91 453.874 1040.81 435.47C1041.72 417.067 1057.42 402.88 1075.88 403.787C1094.34 404.693 1108.58 420.349 1107.68 438.753C1106.77 457.157 1091.07 471.343 1072.61 470.436Z" fill="#F9F9FF"/>
<path d="M1164.45 457.717C1159.63 457.48 1155.53 461.136 1155.29 465.882C1155.06 470.628 1158.78 474.667 1163.61 474.904C1168.44 475.141 1172.54 471.486 1172.77 466.74C1173 461.994 1169.28 457.954 1164.45 457.717Z" fill="#F9F9FF"/>
<path d="M1120.17 60.9051C1126.24 58.9119 1127.56 54.2269 1137.32 51.3159C1148.89 47.8569 1152.75 52.7337 1160.64 49.946C1173.42 45.4322 1169.96 30.3018 1183.96 19.1236C1194.67 10.5892 1212.95 6.44528 1222.38 14.329C1230.97 21.5072 1230.74 37.439 1226.5 48.5762C1219.98 65.686 1205.51 67.5285 1168.87 93.7824C1149.32 107.796 1139.45 115.002 1135.26 124.605C1126.11 145.578 1133.23 173.934 1150.35 191.044C1164.02 204.702 1180.64 207.791 1190.82 209.538C1244.88 218.819 1291.31 181.304 1304.7 170.496C1318.51 159.338 1335.72 145.434 1347.91 121.18C1361.78 93.5838 1356.85 77.0766 1373.3 65.0148C1390.81 52.1721 1407.51 62.7476 1419.94 48.5762C1428.37 38.9732 1420.29 25.0346 1431.6 10.2193C1434.66 6.21925 1437.89 1.54797 1440 0C1311.67 0 1181.83 0 1053.5 0C1055.94 6.15079 1061.46 16.7605 1068.03 25.973C1084.85 49.5351 1109.84 64.2956 1120.17 60.9051Z" fill="#F9F9FF"/>
<path fill-rule="evenodd" clip-rule="evenodd" d="M1030.72 153C1031.9 153 1032.95 153.753 1033.32 154.87L1051.28 208.617L1058.96 185.635C1059.33 184.519 1060.38 183.765 1061.56 183.765H1075.26C1076.77 183.765 1078 184.99 1078 186.5C1078 188.01 1076.77 189.235 1075.26 189.235H1063.53L1053.88 218.13C1053.51 219.247 1052.46 220 1051.28 220C1050.1 220 1049.05 219.247 1048.68 218.13L1030.72 164.383L1023.04 187.365C1022.67 188.481 1021.62 189.235 1020.44 189.235H1006.74C1005.23 189.235 1004 188.01 1004 186.5C1004 184.99 1005.23 183.765 1006.74 183.765H1018.47L1028.12 154.87C1028.5 153.753 1029.54 153 1030.72 153Z" fill="#F9F9FF"/>
<path fill-rule="evenodd" clip-rule="evenodd" d="M462.722 398C463.902 398 464.949 398.753 465.323 399.87L483.278 453.617L490.956 430.635C491.329 429.519 492.376 428.765 493.556 428.765H507.259C508.773 428.765 510 429.99 510 431.5C510 433.01 508.773 434.235 507.259 434.235H495.531L485.878 463.13C485.505 464.247 484.458 465 483.278 465C482.098 465 481.051 464.247 480.678 463.13L462.722 409.383L455.045 432.365C454.672 433.481 453.624 434.235 452.445 434.235H438.741C437.227 434.235 436 433.01 436 431.5C436 429.99 437.227 428.765 438.741 428.765H450.469L460.122 399.87C460.495 398.753 461.543 398 462.722 398Z" fill="#F9F9FF"/>
<path d="M1172.45 331.449H1186.61C1187.73 331.449 1188.65 330.628 1188.65 329.622C1188.65 328.614 1187.73 327.791 1186.61 327.791H1172.45C1171.33 327.791 1170.42 328.612 1170.42 329.622C1170.42 330.628 1171.33 331.449 1172.45 331.449Z" fill="#F9F9FF"/>
<path d="M1193.49 342.148H1172.45C1171.33 342.152 1170.42 342.968 1170.42 343.979C1170.42 344.989 1171.33 345.805 1172.45 345.805H1193.49C1194.61 345.805 1195.53 344.985 1195.53 343.979C1195.53 342.973 1194.61 342.148 1193.49 342.148Z" fill="#F9F9FF"/>
<path d="M1211.96 325.596C1211.9 325.126 1211.78 324.4 1211.46 323.57C1210.71 321.618 1209.44 320.433 1208.76 319.84C1204.86 316.444 1200.96 313.047 1197.06 309.651C1196.37 309.049 1195.17 308.208 1193.41 307.614C1192.02 307.144 1190.8 307.041 1190.05 307.021C1184.37 307.014 1178.69 307.007 1173.01 307C1164.18 307 1157 314.18 1157 323.007V345.993C1157 354.82 1164.18 362 1173.01 362H1195.99C1204.82 362 1212 354.816 1212 345.993C1211.99 339.197 1211.97 332.397 1211.96 325.596ZM1192.2 310.426C1192.3 310.456 1192.41 310.49 1192.51 310.527C1193.31 310.806 1194.23 311.331 1194.89 311.824C1195.93 312.598 1200.72 316.563 1207.12 322.15C1207.37 322.415 1207.62 322.729 1207.86 323.096C1208.34 323.822 1208.6 324.503 1208.79 325.108H1205.16C1198 325.108 1192.2 319.308 1192.2 312.156V310.426ZM1208.95 346C1208.95 353.141 1203.14 358.952 1195.99 358.952H1173.01C1165.87 358.952 1160.06 353.143 1160.06 346V323.013C1160.06 315.873 1165.87 310.062 1173.01 310.062C1178.39 310.059 1183.77 310.057 1189.15 310.055V312.154C1189.15 320.995 1196.32 328.16 1205.16 328.16H1208.96C1208.96 334.107 1208.95 340.054 1208.95 346Z" fill="#F9F9FF"/>
<path d="M387.454 79.4488H401.614C402.735 79.4488 403.649 78.6284 403.649 77.6224C403.649 76.6141 402.735 75.7914 401.614 75.7914H387.454C386.333 75.7914 385.418 76.6118 385.418 77.6224C385.418 78.6284 386.333 79.4488 387.454 79.4488Z" fill="#F9F9FF"/>
<path d="M408.494 90.1479H387.454C386.333 90.1525 385.418 90.9683 385.418 91.9788C385.418 92.9894 386.333 93.8052 387.454 93.8052H408.494C409.615 93.8052 410.529 92.9848 410.529 91.9788C410.527 90.9728 409.613 90.1479 408.494 90.1479Z" fill="#F9F9FF"/>
<path d="M426.961 73.5961C426.904 73.1263 426.778 72.3999 426.459 71.5704C425.712 69.6179 424.443 68.4332 423.76 67.8397C419.861 64.4436 415.961 61.0475 412.062 57.6513C411.373 57.0487 410.172 56.2077 408.409 55.6141C407.018 55.1444 405.804 55.0412 405.05 55.0206C399.368 55.0137 393.689 55.0069 388.008 55C379.18 55 372 62.1795 372 71.0066V93.9934C372 102.821 379.18 110 388.008 110H410.992C419.82 110 427 102.816 427 93.9934C426.989 87.1966 426.975 80.3975 426.961 73.5961ZM407.204 58.4259C407.302 58.4557 407.406 58.4901 407.513 58.5267C408.311 58.8063 409.234 59.3311 409.895 59.8238C410.935 60.5983 415.716 64.5627 422.123 70.1496C422.366 70.4154 422.618 70.7293 422.861 71.096C423.343 71.8224 423.602 72.503 423.787 73.108H420.157C413.002 73.108 407.204 67.308 407.204 60.156V58.4259ZM423.95 94.0003C423.95 101.141 418.14 106.952 410.995 106.952H388.01C380.869 106.952 375.057 101.143 375.057 94.0003V71.0135C375.057 63.873 380.869 58.0615 388.01 58.0615C393.389 58.0592 398.77 58.057 404.149 58.0547V60.1537C404.149 68.9946 411.315 76.1604 420.157 76.1604H423.961C423.957 82.107 423.954 88.0536 423.95 94.0003Z" fill="#F9F9FF"/>
<path fill-rule="evenodd" clip-rule="evenodd" d="M754.506 116.611C755.128 118.036 754.477 119.695 753.052 120.317C748.206 122.432 743.952 125.703 740.662 129.843C737.371 133.982 735.145 138.865 734.177 144.065C733.209 149.264 733.529 154.621 735.109 159.668C736.689 164.715 739.481 169.298 743.241 173.016C747.001 176.735 751.615 179.475 756.678 180.998C761.742 182.521 767.101 182.78 772.288 181.752C777.474 180.725 782.33 178.442 786.431 175.104C790.532 171.765 793.753 167.473 795.812 162.602C796.418 161.17 798.069 160.5 799.501 161.105C800.933 161.711 801.602 163.363 800.997 164.795C798.58 170.513 794.799 175.552 789.985 179.471C785.171 183.39 779.47 186.07 773.381 187.276C767.293 188.482 761.001 188.178 755.057 186.39C749.113 184.603 743.698 181.386 739.284 177.021C734.87 172.656 731.592 167.276 729.737 161.351C727.882 155.426 727.506 149.137 728.642 143.034C729.779 136.93 732.392 131.198 736.255 126.338C740.118 121.479 745.112 117.639 750.801 115.156C752.226 114.534 753.885 115.186 754.506 116.611Z" fill="#F9F9FF"/>
<path fill-rule="evenodd" clip-rule="evenodd" d="M764.011 112.825C764.539 112.297 765.255 112 766.002 112C770.992 112 775.933 112.983 780.543 114.893C785.153 116.803 789.342 119.603 792.871 123.132C796.399 126.662 799.198 130.852 801.108 135.463C803.017 140.074 804 145.017 804 150.008C804 151.563 802.74 152.824 801.185 152.824H766.002C764.447 152.824 763.187 151.563 763.187 150.008V114.815C763.187 114.069 763.483 113.353 764.011 112.825ZM768.816 117.753V147.193H798.248C797.961 143.906 797.173 140.676 795.907 137.618C794.28 133.69 791.896 130.12 788.89 127.114C785.884 124.107 782.316 121.723 778.389 120.095C775.331 118.829 772.102 118.04 768.816 117.753Z" fill="#F9F9FF"/>
<path d="M656 476.336C649.332 476.336 643.904 471.25 643.904 465C643.904 458.751 649.332 453.665 656 453.665C662.669 453.665 668.097 458.751 668.097 465C668.097 471.25 662.669 476.336 656 476.336ZM656 457.321C651.482 457.321 647.806 460.766 647.806 465C647.806 469.235 651.482 472.679 656 472.679C660.519 472.679 664.195 469.235 664.195 465C664.195 460.766 660.519 457.321 656 457.321Z" fill="#F9F9FF"/>
<path d="M657.69 501H654.307C648.863 501 644.435 496.85 644.435 491.752V489.822C644.435 488.512 643.713 487.335 642.507 486.677C641.293 486.011 639.846 486.008 638.632 486.651L636.837 487.602C634.546 488.816 631.881 489.116 629.341 488.454C626.793 487.788 624.678 486.245 623.386 484.102L621.724 481.338C619.043 476.899 620.721 471.246 625.458 468.733C626.723 468.064 627.46 466.854 627.433 465.497C627.405 464.137 626.621 462.952 625.329 462.327C620.499 459.987 618.602 454.392 621.103 449.861L622.656 447.046C623.866 444.859 625.915 443.239 628.436 442.49C630.96 441.747 633.633 441.952 635.963 443.082L638.765 444.442C639.974 445.031 641.399 444.987 642.569 444.318C643.74 443.652 644.438 442.49 644.438 441.206V438.251C644.438 433.15 648.867 429 654.311 429H657.694C663.141 429 667.567 433.15 667.567 438.251V440.186C667.567 441.495 668.288 442.672 669.494 443.331C670.696 443.985 672.144 444.003 673.365 443.352L675.16 442.402C677.443 441.191 680.112 440.888 682.656 441.55C685.204 442.212 687.319 443.758 688.611 445.905L690.277 448.662C692.958 453.101 691.284 458.754 686.543 461.267C685.282 461.936 684.541 463.146 684.568 464.503C684.596 465.859 685.38 467.044 686.668 467.669C689.005 468.803 690.73 470.726 691.53 473.085C692.33 475.443 692.103 477.948 690.898 480.139L689.344 482.954C688.135 485.145 686.082 486.761 683.565 487.511C681.052 488.257 678.379 488.052 676.038 486.918L673.24 485.561C672.023 484.976 670.599 485.017 669.432 485.682C668.261 486.348 667.563 487.51 667.563 488.794V491.752C667.563 496.853 663.138 501 657.69 501ZM640.552 482.512C641.902 482.512 643.252 482.848 644.477 483.514C646.897 484.837 648.341 487.196 648.341 489.822V491.752C648.341 494.835 651.017 497.343 654.311 497.343H657.694C660.987 497.343 663.664 494.831 663.664 491.752V488.794C663.664 486.227 665.061 483.894 667.403 482.559C669.748 481.228 672.6 481.133 675.031 482.314L677.833 483.671C679.246 484.358 680.861 484.483 682.383 484.029C683.909 483.576 685.15 482.596 685.879 481.28L687.432 478.46C688.166 477.14 688.299 475.626 687.815 474.197C687.331 472.767 686.285 471.604 684.88 470.92C682.297 469.666 680.725 467.293 680.67 464.572C680.615 461.852 682.094 459.424 684.627 458.085C687.491 456.568 688.506 453.145 686.882 450.465L685.212 447.704C684.436 446.409 683.156 445.477 681.61 445.075C680.077 444.673 678.457 444.852 677.08 445.587L675.285 446.537C672.846 447.828 669.943 447.814 667.528 446.49C665.108 445.166 663.664 442.811 663.664 440.186V438.251C663.664 435.165 660.984 432.657 657.694 432.657H654.307C651.014 432.657 648.337 435.165 648.337 438.251V441.206C648.337 443.777 646.94 446.106 644.594 447.444C642.253 448.779 639.401 448.87 636.966 447.689L634.168 446.329C632.759 445.649 631.144 445.521 629.618 445.974C628.096 446.431 626.851 447.408 626.122 448.728L624.569 451.543C623.055 454.282 624.206 457.665 627.128 459.083C629.708 460.334 631.28 462.707 631.335 465.431C631.39 468.152 629.911 470.576 627.382 471.918C624.518 473.436 623.503 476.859 625.123 479.539L626.789 482.3C627.569 483.594 628.849 484.527 630.391 484.929C631.928 485.327 633.544 485.148 634.925 484.413L636.72 483.463C637.922 482.83 639.237 482.512 640.552 482.512Z" fill="#F9F9FF"/>
<path d="M49.0005 69.3361C42.3317 69.3361 36.9038 64.2497 36.9038 58.0004C36.9038 51.7512 42.3317 46.6647 49.0005 46.6647C55.6693 46.6647 61.0972 51.7512 61.0972 58.0004C61.0972 64.2497 55.6693 69.3361 49.0005 69.3361ZM49.0005 50.3214C44.4818 50.3214 40.806 53.766 40.806 58.0004C40.806 62.2349 44.4818 65.6795 49.0005 65.6795C53.5192 65.6795 57.1951 62.2349 57.1951 58.0004C57.1951 53.766 53.5192 50.3214 49.0005 50.3214Z" fill="#F9F9FF"/>
<path d="M50.6902 94H47.307C41.8635 94 37.4345 89.8497 37.4345 84.7523V82.8215C37.4345 81.5125 36.7126 80.335 35.5069 79.6768C34.2933 79.0113 32.8456 79.0076 31.632 79.6512L29.837 80.6019C27.5464 81.8159 24.8813 82.1158 22.341 81.4539C19.7928 80.7884 17.6779 79.2453 16.3862 77.1025L14.7239 74.338C12.0431 69.8988 13.7211 64.2456 18.4583 61.7335C19.7226 61.0643 20.4601 59.8539 20.4328 58.4973C20.4055 57.137 19.6211 55.9523 18.3295 55.327C13.4986 52.9867 11.6022 47.392 14.1035 42.8614L15.6565 40.0457C16.8662 37.859 18.9148 36.2391 21.4356 35.4895C23.9604 34.7472 26.6333 34.952 28.9629 36.0819L31.7647 37.4422C32.9743 38.0309 34.3986 37.987 35.5693 37.3178C36.7399 36.6523 37.4384 35.4895 37.4384 34.206V31.2514C37.4384 26.1503 41.8674 22 47.3109 22H50.6941C56.1415 22 60.5665 26.1503 60.5665 31.2514V33.1858C60.5665 34.4949 61.2884 35.6723 62.4942 36.3305C63.6961 36.9851 65.1438 37.0034 66.3652 36.3525L68.1602 35.4017C70.4429 34.1914 73.112 33.8879 75.6562 34.5497C78.2043 35.2116 80.3193 36.7584 81.6109 38.9048L83.2771 41.662C85.9579 46.1012 84.2839 51.7544 79.5428 54.2665C78.2824 54.9357 77.541 56.1461 77.5683 57.5027C77.5956 58.8593 78.3799 60.0441 79.6676 60.6694C82.005 61.8029 83.7298 63.7264 84.5297 66.0849C85.3297 68.4435 85.1033 70.9483 83.8976 73.1386L82.3445 75.9543C81.1349 78.1446 79.0823 79.7609 76.5654 80.5105C74.0524 81.2565 71.3794 81.0517 69.0381 79.9181L66.2403 78.5615C65.0228 77.9764 63.5985 78.0167 62.4318 78.6822C61.2611 79.3477 60.5626 80.5105 60.5626 81.794V84.7523C60.5626 89.8533 56.1376 94 50.6902 94ZM33.5519 75.5118C34.902 75.5118 36.2522 75.8483 37.4774 76.5138C39.8968 77.8375 41.3406 80.196 41.3406 82.8215V84.7523C41.3406 87.8348 44.0175 90.3433 47.3109 90.3433H50.6941C53.9875 90.3433 56.6644 87.8312 56.6644 84.7523V81.794C56.6644 79.227 58.0614 76.8941 60.4027 75.5594C62.7479 74.2283 65.6003 74.1333 68.0314 75.3144L70.8331 76.671C72.2457 77.3585 73.8612 77.4828 75.3831 77.0294C76.9088 76.5759 78.1497 75.5959 78.8794 74.2795L80.4325 71.4602C81.1661 70.1402 81.2988 68.6263 80.8149 67.1965C80.331 65.7668 79.2852 64.604 77.8804 63.9202C75.2972 62.6659 73.7246 60.2927 73.67 57.5722C73.6154 54.8516 75.0943 52.4236 77.6268 51.0852C80.491 49.5677 81.5056 46.145 79.8823 43.4647L78.2121 40.7039C77.4356 39.4094 76.1557 38.477 74.6104 38.0748C73.0769 37.6725 71.4575 37.8517 70.08 38.5867L68.285 39.5374C65.8462 40.8282 62.943 40.8136 60.5275 39.4899C58.1082 38.1662 56.6644 35.8113 56.6644 33.1858V31.2514C56.6644 28.1652 53.9836 25.6567 50.6941 25.6567H47.307C44.0136 25.6567 41.3367 28.1652 41.3367 31.2514V34.206C41.3367 36.7766 39.9397 39.1059 37.5945 40.4443C35.2532 41.779 32.4007 41.8704 29.9658 40.6893L27.1679 39.329C25.7592 38.6489 24.1437 38.5209 22.618 38.9743C21.0962 39.4314 19.8514 40.4077 19.1217 41.7278L17.5686 44.5434C16.0546 47.2823 17.2057 50.6647 20.1284 52.0835C22.7077 53.3341 24.2803 55.7073 24.335 58.4315C24.3896 61.1521 22.9107 63.5764 20.3821 64.9184C17.5179 66.436 16.5033 69.8586 18.1227 72.539L19.7889 75.2997C20.5694 76.5942 21.8493 77.5267 23.3906 77.9289C24.9281 78.3275 26.5436 78.1483 27.9249 77.4133L29.7199 76.4626C30.9218 75.83 32.2368 75.5118 33.5519 75.5118Z" fill="#F9F9FF"/>
<path d="M363.861 494.921C356.954 497.191 355.448 502.526 344.35 505.841C331.185 509.78 326.799 504.227 317.816 507.401C303.277 512.541 307.218 529.771 291.282 542.5C279.108 552.219 258.31 556.938 247.579 547.96C237.808 539.786 238.066 521.644 242.896 508.961C250.31 489.477 266.769 487.379 308.451 457.482C330.701 441.524 341.923 433.318 346.691 422.383C357.102 398.5 349.002 366.209 329.522 346.725C313.977 331.172 295.059 327.654 283.478 325.665C221.981 315.096 169.155 357.816 153.929 370.124C138.219 382.83 118.631 398.664 104.763 426.283C88.9829 457.708 94.5942 476.506 75.8877 490.242C55.9637 504.866 36.9605 492.823 22.8194 508.961C13.2359 519.896 22.4291 535.769 9.55227 552.64C6.07946 557.195 2.3961 560.237 0.00019455 562C146 562 292 562 438 562C435.23 554.996 430.649 545.191 423.172 534.701C404.044 507.869 375.606 491.061 363.861 494.921Z" fill="#F9F9FF"/>
<path d="M-29.0524 349.287C-51.6687 358.39 -62.6449 384.042 -53.5707 406.586C-44.4964 429.131 -18.8101 440.025 3.80609 430.922C26.4223 421.819 37.3985 396.168 28.3243 373.623C19.25 351.079 -6.43621 340.184 -29.0524 349.287ZM-0.164967 421.056C-17.3125 427.958 -36.7934 419.696 -43.6734 402.602C-50.5535 385.509 -42.2289 366.055 -25.0814 359.153C-7.93388 352.251 11.547 360.514 18.427 377.607C25.3071 394.7 16.9825 414.154 -0.164967 421.056Z" fill="#F9F9FF"/>
<path d="M77.9315 371.073C73.4492 372.877 71.2541 377.913 73.0284 382.321C74.8027 386.729 79.8746 388.84 84.3568 387.036C88.839 385.232 91.0341 380.196 89.2598 375.788C87.4855 371.38 82.4137 369.269 77.9315 371.073Z" fill="#F9F9FF"/>
</svg>
