<svg width="65" height="60" viewBox="0 0 65 60" fill="none" xmlns="http://www.w3.org/2000/svg">
<g clip-path="url(#clip0_4_19)">
<g filter="url(#filter0_d_4_19)">
<rect width="65" height="60" rx="8" fill="#F2B705"/>
</g>
<path d="M27.0242 29.1131H33.461C33.9704 29.1131 34.386 28.7402 34.386 28.2829C34.386 27.8246 33.9704 27.4506 33.461 27.4506H27.0242C26.5148 27.4506 26.0992 27.8235 26.0992 28.2829C26.0992 28.7402 26.5148 29.1131 27.0242 29.1131Z" fill="white"/>
<path d="M36.5882 33.9763H27.0242C26.5148 33.9784 26.0992 34.3492 26.0992 34.8086C26.0992 35.2679 26.5148 35.6387 27.0242 35.6387H36.5882C37.0976 35.6387 37.5132 35.2658 37.5132 34.8086C37.5122 34.3513 37.0965 33.9763 36.5882 33.9763Z" fill="white"/>
<path d="M44.9823 26.4528C44.9562 26.2392 44.899 25.909 44.7542 25.532C44.4146 24.6445 43.8375 24.106 43.527 23.8362C41.7551 22.2925 39.9821 20.7488 38.2101 19.2052C37.8966 18.9312 37.3507 18.5489 36.5496 18.2792C35.9173 18.0656 35.3652 18.0187 35.0225 18.0094C32.4401 18.0062 29.8587 18.0031 27.2763 18C23.2637 18 20 21.2634 20 25.2757V35.7243C20 39.7366 23.2637 43 27.2763 43H37.7237C41.7363 43 45 39.7345 45 35.7243C44.9948 32.6348 44.9885 29.5443 44.9823 26.4528ZM36.0017 19.5572C36.0465 19.5708 36.0934 19.5864 36.1423 19.6031C36.5049 19.7301 36.9247 19.9687 37.2247 20.1926C37.6976 20.5447 39.8706 22.3467 42.7832 24.8862C42.8937 25.007 43.0083 25.1497 43.1187 25.3164C43.3374 25.6466 43.4551 25.9559 43.5395 26.2309H41.8895C38.6372 26.2309 36.0017 23.5946 36.0017 20.3437V19.5572ZM43.6135 35.7274C43.6135 38.9731 40.9727 41.6146 37.7247 41.6146H27.2774C24.0314 41.6146 21.3896 38.9741 21.3896 35.7274V25.2789C21.3896 22.0332 24.0314 19.3916 27.2774 19.3916C29.7223 19.3906 32.1682 19.3895 34.6131 19.3885V20.3426C34.6131 24.3612 37.8705 27.6183 41.8895 27.6183H43.6187C43.6166 30.3214 43.6156 33.0244 43.6135 35.7274Z" fill="white"/>
</g>
<defs>
<filter id="filter0_d_4_19" x="-9" y="-5" width="83" height="78" filterUnits="userSpaceOnUse" color-interpolation-filters="sRGB">
<feFlood flood-opacity="0" result="BackgroundImageFix"/>
<feColorMatrix in="SourceAlpha" type="matrix" values="0 0 0 0 0 0 0 0 0 0 0 0 0 0 0 0 0 0 127 0" result="hardAlpha"/>
<feOffset dy="4"/>
<feGaussianBlur stdDeviation="4.5"/>
<feComposite in2="hardAlpha" operator="out"/>
<feColorMatrix type="matrix" values="0 0 0 0 0 0 0 0 0 0 0 0 0 0 0 0 0 0 0.05 0"/>
<feBlend mode="normal" in2="BackgroundImageFix" result="effect1_dropShadow_4_19"/>
<feBlend mode="normal" in="SourceGraphic" in2="effect1_dropShadow_4_19" result="shape"/>
</filter>
<clipPath id="clip0_4_19">
<rect width="65" height="60" fill="white"/>
</clipPath>
</defs>
</svg>
